<svg xmlns="http://www.w3.org/2000/svg"  viewBox="0 0 48 48" width="48px" height="48px" baseProfile="basic"><linearGradient id="76O1fk8AmTVn1zfPWUYl6a" x1="2.027" x2="16.293" y1="23.527" y2="37.792" gradientUnits="userSpaceOnUse"><stop offset="0" stop-color="#262626" stop-opacity="0"/><stop offset="1" stop-color="#262626" stop-opacity=".8"/></linearGradient><path fill="url(#76O1fk8AmTVn1zfPWUYl6a)" d="M11,35H9c-1.657,0-3-1.343-3-3v-7h2c1.657,0,3,1.343,3,3V35z"/><linearGradient id="76O1fk8AmTVn1zfPWUYl6b" x1="7.301" x2="25.37" y1="21.801" y2="39.87" gradientUnits="userSpaceOnUse"><stop offset="0" stop-color="#262626" stop-opacity="0"/><stop offset="1" stop-color="#262626" stop-opacity=".8"/></linearGradient><path fill="url(#76O1fk8AmTVn1zfPWUYl6b)" d="M18,37h-2c-1.657,0-3-1.343-3-3V23h2c1.657,0,3,1.343,3,3V37z"/><linearGradient id="76O1fk8AmTVn1zfPWUYl6c" x1="12.575" x2="34.449" y1="20.075" y2="41.949" gradientUnits="userSpaceOnUse"><stop offset="0" stop-color="#262626" stop-opacity="0"/><stop offset="1" stop-color="#262626" stop-opacity=".8"/></linearGradient><path fill="url(#76O1fk8AmTVn1zfPWUYl6c)" d="M25,39h-2c-1.657,0-3-1.343-3-3V21h2c1.657,0,3,1.343,3,3V39z"/><linearGradient id="76O1fk8AmTVn1zfPWUYl6d" x1="16.985" x2="44.566" y1="17.485" y2="45.066" gradientUnits="userSpaceOnUse"><stop offset="0" stop-color="#262626" stop-opacity="0"/><stop offset="1" stop-color="#262626" stop-opacity=".8"/></linearGradient><path fill="url(#76O1fk8AmTVn1zfPWUYl6d)" d="M32,42h-2c-1.657,0-3-1.343-3-3V18h2c1.657,0,3,1.343,3,3V42z"/><linearGradient id="76O1fk8AmTVn1zfPWUYl6e" x1="-28.986" x2="51.524" y1="-33.763" y2="46.747" gradientUnits="userSpaceOnUse"><stop offset="0" stop-color="#262626" stop-opacity="0"/><stop offset="1" stop-color="#262626" stop-opacity=".8"/></linearGradient><path fill="url(#76O1fk8AmTVn1zfPWUYl6e)" d="M37.79,12.214l-24-7.5c-1.841-0.577-3.789-0.25-5.343,0.892C6.892,6.749,6,8.511,6,10.441V23	h4V10.441c0-0.643,0.297-1.23,0.815-1.612s1.166-0.49,1.781-0.297l24,7.5C37.436,16.294,38,17.062,38,17.941v15.618	c0,0.643-0.297,1.23-0.815,1.612c-0.519,0.38-1.168,0.489-1.781,0.297L34,35v4.22l0.21,0.066c0.597,0.187,1.206,0.279,1.808,0.279	c1.255,0,2.485-0.399,3.535-1.171C41.108,37.251,42,35.489,42,33.559V17.941C42,15.302,40.308,13,37.79,12.214z"/></svg>